<?xml version="1.0" encoding="UTF-8"?>
<svg width="16px" height="15px" viewBox="0 0 16 15" version="1.1" xmlns="http://www.w3.org/2000/svg" xmlns:xlink="http://www.w3.org/1999/xlink">
    <!-- Generator: sketchtool 49.3 (51167) - http://www.bohemiancoding.com/sketch -->
    <title>223895C7-B368-46D3-B185-0F95D1892A8F</title>
    <desc>Created with sketchtool.</desc>
    <defs></defs>
    <g id="Symbols" stroke="none" stroke-width="1" fill="none" fill-rule="evenodd">
        <g id="2d.-Favourite---selected" fill="#FFBE15">
            <path d="M7.99998127,11.6401051 L3.285741,14.9292472 C3.19515351,14.9924504 3.07048152,14.970251 3.00727832,14.8796635 C2.9715289,14.8284249 2.96177776,14.7634238 2.98091874,14.7039507 L4.71807924,9.3064073 L0.0769398593,5.94327806 C-0.0125027782,5.87846485 -0.0324688727,5.75341578 0.0323443389,5.66397314 C0.0695974211,5.61256365 0.129046511,5.58189509 0.192532056,5.5813356 L5.97165427,5.530405 L7.81075316,0.155848 C7.84651428,0.051340201 7.96022471,-0.00438999372 8.06473251,0.0313711263 C8.12323613,0.0513902525 8.16919026,0.0973443845 8.18920938,0.155848 L10.0283083,5.530405 L15.8074305,5.5813356 C15.9178832,5.58230901 16.0066336,5.67263768 16.0056602,5.78309034 C16.0051007,5.84657589 15.9744322,5.90602498 15.9230227,5.94327806 L11.2818833,9.3064073 L13.0190438,14.7039507 C13.0528841,14.8090962 12.9950799,14.9217664 12.8899344,14.9556067 C12.8304613,14.9747477 12.7654602,14.9649966 12.7142216,14.9292472 L7.99998127,11.6401051 Z" id="starSelected"></path>
        </g>
    </g>
</svg>