<?xml version="1.0" encoding="UTF-8" standalone="no" ?>
<!DOCTYPE svg PUBLIC "-//W3C//DTD SVG 1.1//EN" "http://www.w3.org/Graphics/SVG/1.1/DTD/svg11.dtd">
<svg xmlns="http://www.w3.org/2000/svg" xmlns:xlink="http://www.w3.org/1999/xlink" version="1.1" width="350" height="350" viewBox="0 0 350 350" xml:space="preserve">
<desc>Created with Fabric.js 1.7.22</desc>
<defs>
</defs>
<g id="icon" style="stroke: none; stroke-width: 1; stroke-dasharray: none; stroke-linecap: butt; stroke-linejoin: miter; stroke-miterlimit: 10; fill: none; fill-rule: nonzero; opacity: 1;" transform="translate(-1.9444444444444287 -1.9444444444444287) scale(3.89 3.89)" >
	<path d="M 87.531 77.813 H 32.56 c -1.363 0 -2.469 1.105 -2.469 2.469 v 3.192 c 20.66 1.252 40.67 1.327 59.908 0 v -3.192 C 90 78.918 88.895 77.813 87.531 77.813 z" style="stroke: none; stroke-width: 1; stroke-dasharray: none; stroke-linecap: butt; stroke-linejoin: miter; stroke-miterlimit: 10; fill: rgb(211,135,0); fill-rule: nonzero; opacity: 1;" transform=" matrix(1 0 0 1 0 0) " stroke-linecap="round" />
	<path d="M 90 83.474 c 0 1.41 -1.143 2.554 -2.554 2.554 H 32.645 c -1.41 0 -2.554 -1.143 -2.554 -2.554 H 90 z" style="stroke: none; stroke-width: 1; stroke-dasharray: none; stroke-linecap: butt; stroke-linejoin: miter; stroke-miterlimit: 10; fill: rgb(232,180,54); fill-rule: nonzero; opacity: 1;" transform=" matrix(1 0 0 1 0 0) " stroke-linecap="round" />
	<path d="M 87.531 69.598 H 32.56 c -1.363 0 -2.469 1.105 -2.469 2.469 v 3.192 c 20.66 1.252 40.67 1.327 59.908 0 v -3.192 C 90 70.703 88.895 69.598 87.531 69.598 z" style="stroke: none; stroke-width: 1; stroke-dasharray: none; stroke-linecap: butt; stroke-linejoin: miter; stroke-miterlimit: 10; fill: rgb(211,135,0); fill-rule: nonzero; opacity: 1;" transform=" matrix(1 0 0 1 0 0) " stroke-linecap="round" />
	<path d="M 90 75.259 c 0 1.41 -1.143 2.554 -2.554 2.554 H 32.645 c -1.41 0 -2.554 -1.143 -2.554 -2.554 H 90 z" style="stroke: none; stroke-width: 1; stroke-dasharray: none; stroke-linecap: butt; stroke-linejoin: miter; stroke-miterlimit: 10; fill: rgb(232,180,54); fill-rule: nonzero; opacity: 1;" transform=" matrix(1 0 0 1 0 0) " stroke-linecap="round" />
	<path d="M 87.531 61.383 H 32.56 c -1.363 0 -2.469 1.105 -2.469 2.469 v 3.192 c 20.66 1.252 40.67 1.327 59.908 0 v -3.192 C 90 62.489 88.895 61.383 87.531 61.383 z" style="stroke: none; stroke-width: 1; stroke-dasharray: none; stroke-linecap: butt; stroke-linejoin: miter; stroke-miterlimit: 10; fill: rgb(211,135,0); fill-rule: nonzero; opacity: 1;" transform=" matrix(1 0 0 1 0 0) " stroke-linecap="round" />
	<path d="M 90 67.044 c 0 1.41 -1.143 2.554 -2.554 2.554 H 32.645 c -1.41 0 -2.554 -1.143 -2.554 -2.554 H 90 z" style="stroke: none; stroke-width: 1; stroke-dasharray: none; stroke-linecap: butt; stroke-linejoin: miter; stroke-miterlimit: 10; fill: rgb(232,180,54); fill-rule: nonzero; opacity: 1;" transform=" matrix(1 0 0 1 0 0) " stroke-linecap="round" />
	<path d="M 87.531 53.169 H 32.56 c -1.363 0 -2.469 1.105 -2.469 2.469 v 3.192 c 20.66 1.252 40.67 1.327 59.908 0 v -3.192 C 90 54.274 88.895 53.169 87.531 53.169 z" style="stroke: none; stroke-width: 1; stroke-dasharray: none; stroke-linecap: butt; stroke-linejoin: miter; stroke-miterlimit: 10; fill: rgb(211,135,0); fill-rule: nonzero; opacity: 1;" transform=" matrix(1 0 0 1 0 0) " stroke-linecap="round" />
	<path d="M 90 58.83 c 0 1.41 -1.143 2.554 -2.554 2.554 H 32.645 c -1.41 0 -2.554 -1.143 -2.554 -2.554 H 90 z" style="stroke: none; stroke-width: 1; stroke-dasharray: none; stroke-linecap: butt; stroke-linejoin: miter; stroke-miterlimit: 10; fill: rgb(232,180,54); fill-rule: nonzero; opacity: 1;" transform=" matrix(1 0 0 1 0 0) " stroke-linecap="round" />
	<path d="M 87.531 44.954 H 32.56 c -1.363 0 -2.469 1.105 -2.469 2.469 v 3.192 c 20.66 1.252 40.67 1.327 59.908 0 v -3.192 C 90 46.059 88.895 44.954 87.531 44.954 z" style="stroke: none; stroke-width: 1; stroke-dasharray: none; stroke-linecap: butt; stroke-linejoin: miter; stroke-miterlimit: 10; fill: rgb(211,135,0); fill-rule: nonzero; opacity: 1;" transform=" matrix(1 0 0 1 0 0) " stroke-linecap="round" />
	<path d="M 90 50.615 c 0 1.41 -1.143 2.554 -2.554 2.554 H 32.645 c -1.41 0 -2.554 -1.143 -2.554 -2.554 H 90 z" style="stroke: none; stroke-width: 1; stroke-dasharray: none; stroke-linecap: butt; stroke-linejoin: miter; stroke-miterlimit: 10; fill: rgb(232,180,54); fill-rule: nonzero; opacity: 1;" transform=" matrix(1 0 0 1 0 0) " stroke-linecap="round" />
	<path d="M 87.531 36.739 H 32.56 c -1.363 0 -2.469 1.105 -2.469 2.469 V 42.4 c 20.66 1.252 40.67 1.327 59.908 0 v -3.192 C 90 37.845 88.895 36.739 87.531 36.739 z" style="stroke: none; stroke-width: 1; stroke-dasharray: none; stroke-linecap: butt; stroke-linejoin: miter; stroke-miterlimit: 10; fill: rgb(211,135,0); fill-rule: nonzero; opacity: 1;" transform=" matrix(1 0 0 1 0 0) " stroke-linecap="round" />
	<path d="M 90 42.4 c 0 1.41 -1.143 2.554 -2.554 2.554 H 32.645 c -1.41 0 -2.554 -1.143 -2.554 -2.554 H 90 z" style="stroke: none; stroke-width: 1; stroke-dasharray: none; stroke-linecap: butt; stroke-linejoin: miter; stroke-miterlimit: 10; fill: rgb(232,180,54); fill-rule: nonzero; opacity: 1;" transform=" matrix(1 0 0 1 0 0) " stroke-linecap="round" />
	<path d="M 87.531 28.525 H 32.56 c -1.363 0 -2.469 1.105 -2.469 2.469 v 3.192 c 20.66 1.252 40.67 1.327 59.908 0 v -3.192 C 90 29.63 88.895 28.525 87.531 28.525 z" style="stroke: none; stroke-width: 1; stroke-dasharray: none; stroke-linecap: butt; stroke-linejoin: miter; stroke-miterlimit: 10; fill: rgb(211,135,0); fill-rule: nonzero; opacity: 1;" transform=" matrix(1 0 0 1 0 0) " stroke-linecap="round" />
	<path d="M 90 34.186 c 0 1.41 -1.143 2.554 -2.554 2.554 H 32.645 c -1.41 0 -2.554 -1.143 -2.554 -2.554 H 90 z" style="stroke: none; stroke-width: 1; stroke-dasharray: none; stroke-linecap: butt; stroke-linejoin: miter; stroke-miterlimit: 10; fill: rgb(232,180,54); fill-rule: nonzero; opacity: 1;" transform=" matrix(1 0 0 1 0 0) " stroke-linecap="round" />
	<path d="M 87.531 20.31 H 32.56 c -1.363 0 -2.469 1.105 -2.469 2.469 v 3.192 c 20.66 1.252 40.67 1.327 59.908 0 v -3.192 C 90 21.415 88.895 20.31 87.531 20.31 z" style="stroke: none; stroke-width: 1; stroke-dasharray: none; stroke-linecap: butt; stroke-linejoin: miter; stroke-miterlimit: 10; fill: rgb(211,135,0); fill-rule: nonzero; opacity: 1;" transform=" matrix(1 0 0 1 0 0) " stroke-linecap="round" />
	<path d="M 90 25.971 c 0 1.41 -1.143 2.554 -2.554 2.554 H 32.645 c -1.41 0 -2.554 -1.143 -2.554 -2.554 H 90 z" style="stroke: none; stroke-width: 1; stroke-dasharray: none; stroke-linecap: butt; stroke-linejoin: miter; stroke-miterlimit: 10; fill: rgb(232,180,54); fill-rule: nonzero; opacity: 1;" transform=" matrix(1 0 0 1 0 0) " stroke-linecap="round" />
	<path d="M 87.531 12.095 H 32.56 c -1.363 0 -2.469 1.105 -2.469 2.469 v 3.192 c 20.66 1.252 40.67 1.327 59.908 0 v -3.192 C 90 13.201 88.895 12.095 87.531 12.095 z" style="stroke: none; stroke-width: 1; stroke-dasharray: none; stroke-linecap: butt; stroke-linejoin: miter; stroke-miterlimit: 10; fill: rgb(211,135,0); fill-rule: nonzero; opacity: 1;" transform=" matrix(1 0 0 1 0 0) " stroke-linecap="round" />
	<path d="M 90 17.756 c 0 1.41 -1.143 2.554 -2.554 2.554 H 32.645 c -1.41 0 -2.554 -1.143 -2.554 -2.554 H 90 z" style="stroke: none; stroke-width: 1; stroke-dasharray: none; stroke-linecap: butt; stroke-linejoin: miter; stroke-miterlimit: 10; fill: rgb(232,180,54); fill-rule: nonzero; opacity: 1;" transform=" matrix(1 0 0 1 0 0) " stroke-linecap="round" />
	<path d="M 87.531 3.881 H 32.56 c -1.363 0 -2.469 1.105 -2.469 2.469 v 3.192 c 20.66 1.252 40.67 1.327 59.908 0 V 6.349 C 90 4.986 88.895 3.881 87.531 3.881 z" style="stroke: none; stroke-width: 1; stroke-dasharray: none; stroke-linecap: butt; stroke-linejoin: miter; stroke-miterlimit: 10; fill: rgb(211,135,0); fill-rule: nonzero; opacity: 1;" transform=" matrix(1 0 0 1 0 0) " stroke-linecap="round" />
	<path d="M 90 9.541 c 0 1.41 -1.143 2.554 -2.554 2.554 H 32.645 c -1.41 0 -2.554 -1.143 -2.554 -2.554 H 90 z" style="stroke: none; stroke-width: 1; stroke-dasharray: none; stroke-linecap: butt; stroke-linejoin: miter; stroke-miterlimit: 10; fill: rgb(232,180,54); fill-rule: nonzero; opacity: 1;" transform=" matrix(1 0 0 1 0 0) " stroke-linecap="round" />
	<circle cx="32.077" cy="54.047" r="32.077" style="stroke: none; stroke-width: 1; stroke-dasharray: none; stroke-linecap: butt; stroke-linejoin: miter; stroke-miterlimit: 10; fill: rgb(255,200,67); fill-rule: nonzero; opacity: 1;" transform="  matrix(1 0 0 1 0 0) "/>
	<circle cx="32.078" cy="54.038" r="24.948" style="stroke: none; stroke-width: 1; stroke-dasharray: none; stroke-linecap: butt; stroke-linejoin: miter; stroke-miterlimit: 10; fill: rgb(211,135,0); fill-rule: nonzero; opacity: 1;" transform="  matrix(1 0 0 1 0 0) "/>
	<path d="M 35.449 51.357 h -6.745 c -0.487 0 -0.899 -0.412 -0.899 -0.899 v -5.233 c 0 -0.487 0.412 -0.899 0.899 -0.899 h 6.745 c 0.487 0 0.899 0.412 0.899 0.899 c 0 1.38 1.119 2.5 2.5 2.5 s 2.5 -1.119 2.5 -2.5 c 0 -3.253 -2.646 -5.899 -5.899 -5.899 h -0.872 v -1.71 c 0 -1.381 -1.119 -2.5 -2.5 -2.5 s -2.5 1.119 -2.5 2.5 v 1.71 h -0.873 c -3.253 0 -5.899 2.646 -5.899 5.899 v 5.233 c 0 3.253 2.646 5.899 5.899 5.899 h 6.745 c 0.487 0 0.899 0.412 0.899 0.899 v 5.232 c 0 0.487 -0.412 0.899 -0.899 0.899 h -6.745 c -0.487 0 -0.899 -0.412 -0.899 -0.899 c 0 -1.381 -1.119 -2.5 -2.5 -2.5 s -2.5 1.119 -2.5 2.5 c 0 3.253 2.646 5.899 5.899 5.899 h 0.873 v 2.082 c 0 1.381 1.119 2.5 2.5 2.5 s 2.5 -1.119 2.5 -2.5 v -2.082 h 0.872 c 3.253 0 5.899 -2.646 5.899 -5.899 v -5.232 C 41.348 54.004 38.702 51.357 35.449 51.357 z" style="stroke: none; stroke-width: 1; stroke-dasharray: none; stroke-linecap: butt; stroke-linejoin: miter; stroke-miterlimit: 10; fill: rgb(255,200,67); fill-rule: nonzero; opacity: 1;" transform=" matrix(1 0 0 1 0 0) " stroke-linecap="round" />
</g>
</svg>